<svg width="47" height="50" viewBox="0 0 47 50" fill="none" xmlns="http://www.w3.org/2000/svg">
<path fill-rule="evenodd" clip-rule="evenodd" d="M22.6421 2.5C22.6421 3.875 23.0921 5 23.6421 5C24.1921 5 24.6421 3.875 24.6421 2.5C24.6421 1.125 24.1921 0 23.6421 0C23.0921 0 22.6421 1.125 22.6421 2.5ZM11.6421 4.378C11.6421 6.039 14.0751 8.234 14.9491 7.36C15.7621 6.547 13.8571 3 12.6071 3C12.0761 3 11.6421 3.62 11.6421 4.378ZM32.7121 4.869C32.1621 5.896 31.9931 7.017 32.3351 7.36C33.2091 8.234 35.6421 6.039 35.6421 4.378C35.6421 2.389 33.8811 2.685 32.7121 4.869ZM19.8271 9.014C13.9511 10.361 8.64205 17.182 8.64205 23.385C8.64205 24.732 10.2171 28.803 12.1421 32.431C14.5711 37.01 15.6421 40.34 15.6421 43.314C15.6421 45.671 16.1821 48.14 16.8421 48.8C17.5021 49.46 20.6361 50 23.8071 50C30.4831 50 31.6421 48.802 31.6421 41.903C31.6421 38.896 32.5221 36.303 34.6911 32.924C38.8801 26.395 39.3051 22.561 36.4501 17.023C33.1061 10.535 26.6861 7.442 19.8271 9.014ZM3.17305 11.95C2.66105 12.778 5.50505 15 7.07605 15C8.36705 15 7.51805 12.166 6.06005 11.607C3.99605 10.815 3.86505 10.83 3.17305 11.95ZM30.4231 13.592C33.5151 15.618 35.9791 21.563 35.2471 25.227C34.9311 26.803 33.5941 29.534 32.2741 31.296C30.9541 33.058 29.5671 35.513 29.1911 36.75C28.6061 38.674 27.8291 38.994 23.8251 38.96L19.1421 38.92L15.3921 32.497C11.1431 25.22 10.7731 21.937 13.6651 17.193C17.2481 11.317 24.5541 9.747 30.4231 13.592ZM40.8921 11.662C39.6711 12.155 39.0871 15 40.2081 15C40.5191 15 41.6441 14.534 42.7081 13.965C46.1671 12.114 44.6231 10.157 40.8921 11.662ZM0.138054 23.007C-0.656946 24.292 2.15205 25.402 4.20505 24.614C6.20905 23.845 5.10605 22 2.64205 22C1.60705 22 0.480054 22.453 0.138054 23.007ZM41.8661 23.173C42.3781 24.707 46.6271 24.996 46.6731 23.5C46.6901 22.95 45.5161 22.353 44.0641 22.173C42.2201 21.945 41.5571 22.246 41.8661 23.173ZM26.3921 42.716C24.8801 42.945 22.4051 42.945 20.8921 42.716C19.3801 42.487 20.6171 42.3 23.6421 42.3C26.6671 42.3 27.9051 42.487 26.3921 42.716ZM26.3921 46.716C24.8801 46.945 22.4051 46.945 20.8921 46.716C19.3801 46.487 20.6171 46.3 23.6421 46.3C26.6671 46.3 27.9051 46.487 26.3921 46.716Z" fill="#1D0B82"/>
</svg>
