<svg width="100" height="100" viewBox="0 0 100 100" fill="none" xmlns="http://www.w3.org/2000/svg">
<path d="M61.9041 71.175C69.6674 70.2558 77.2952 68.4237 84.6291 65.7167C78.4182 58.8367 74.9862 49.8937 74.9999 40.625V37.5C74.9999 30.8696 72.366 24.5107 67.6776 19.8223C62.9892 15.1339 56.6303 12.5 49.9999 12.5C43.3695 12.5 37.0107 15.1339 32.3223 19.8223C27.6339 24.5107 24.9999 30.8696 24.9999 37.5V40.625C25.0125 49.8943 21.579 58.8373 15.3666 65.7167C22.5874 68.3833 30.1999 70.2375 38.0958 71.175M61.9041 71.175C53.9957 72.1131 46.0042 72.1131 38.0958 71.175M61.9041 71.175C62.5045 73.0494 62.6538 75.0391 62.3399 76.9822C62.0259 78.9252 61.2576 80.7666 60.0973 82.3566C58.9371 83.9465 57.4179 85.24 55.6632 86.1317C53.9086 87.0235 51.9682 87.4882 49.9999 87.4882C48.0317 87.4882 46.0913 87.0235 44.3366 86.1317C42.582 85.24 41.0627 83.9465 39.9025 82.3566C38.7423 80.7666 37.9739 78.9252 37.66 76.9822C37.346 75.0391 37.4953 73.0494 38.0958 71.175M13.0166 31.25C14.1915 24.2707 17.3241 17.7685 22.0499 12.5M77.9499 12.5C82.6758 17.7685 85.8084 24.2707 86.9833 31.25" stroke="#1D0B82" stroke-width="1.5" stroke-linecap="round" stroke-linejoin="round"/>
</svg>
