<svg width="64" height="83" viewBox="0 0 64 83" fill="none" xmlns="http://www.w3.org/2000/svg">
<path d="M24.1875 0.75H5.4375C2.85 0.75 0.75 2.85 0.75 5.4375V77.3125C0.75 79.9 2.85 82 5.4375 82H58.5625C61.15 82 63.25 79.9 63.25 77.3125V39.8125M24.1875 0.75H25.75C35.6956 0.75 45.2339 4.70088 52.2665 11.7335C59.2991 18.7661 63.25 28.3044 63.25 38.25V39.8125M24.1875 0.75C27.9171 0.75 31.494 2.23158 34.1312 4.86881C36.7684 7.50604 38.25 11.0829 38.25 14.8125V21.0625C38.25 23.65 40.35 25.75 42.9375 25.75H49.1875C52.9171 25.75 56.494 27.2316 59.1312 29.8688C61.7684 32.506 63.25 36.0829 63.25 39.8125M19.5 53.875L28.875 63.25L44.5 41.375" stroke="#1D0B82" stroke-width="1.5" stroke-linecap="round" stroke-linejoin="round"/>
</svg>
